Coordinates
version=1
nRows=11
nColumns=40
inDegrees=yes

Units are S.I. units (second, meters, Newtons, ...)
Angles are in degrees.

endheader
time	pelvis_tilt	pelvis_list	pelvis_rotation	pelvis_tx	pelvis_ty	pelvis_tz	hip_flexion_r	hip_adduction_r	hip_rotation_r	knee_angle_r	knee_angle_r_beta	ankle_angle_r	subtalar_angle_r	mtp_angle_r	hip_flexion_l	hip_adduction_l	hip_rotation_l	knee_angle_l	knee_angle_l_beta	ankle_angle_l	subtalar_angle_l	mtp_angle_l	lumbar_extension	lumbar_bending	lumbar_rotation	arm_flex_r	arm_add_r	arm_rot_r	elbow_flex_r	pro_sup_r	wrist_flex_r	wrist_dev_r	arm_flex_l	arm_add_l	arm_rot_l	elbow_flex_l	pro_sup_l	wrist_flex_l	wrist_dev_l
     38.45592857	     -4.75224621	     -5.13186813	    -10.00778458	      0.90431809	      0.92592982	      0.41837680	     27.22891407	     -0.67652712	     -6.38553801	     20.50507044	     20.50507044	      5.76388475	      3.87523724	      1.92342537	      8.68745622	     -3.63136036	    -10.22063745	     22.54486496	     22.54486496	     19.96162725	    -13.75310801	      3.16697068	    -11.15256867	      7.64933311	      0.85724602	    -19.93832115	    -12.85782486	    -17.07653531	     28.45981478	     46.47781928	      0.00000000	      0.00000000	     35.30241649	    -21.91720118	     -2.73498208	     57.78505413	     47.51204145	      0.00000000	      0.00000000
     38.47685714	     -4.83728124	     -4.95229932	    -10.41956353	      0.90439955	      0.92529158	      0.42112945	     26.42623436	     -0.33390560	     -7.21151041	     16.96211216	     16.96211216	      4.89842494	      6.64288430	      3.21606365	      7.94869656	     -3.52680960	    -10.70539611	     21.94686386	     21.94686386	     20.20784976	    -13.51152912	      3.02965120	    -11.02076286	      7.54444358	      1.08196235	    -20.16737479	    -12.70840341	    -17.05218727	     28.38353626	     46.47495678	      0.00000000	      0.00000000	     36.85127791	    -22.44772379	     -3.00624446	     58.78812688	     47.55965469	      0.00000000	      0.00000000
     38.49778571	     -4.87977236	     -4.66086227	    -10.74185036	      0.90479531	      0.92418168	      0.42388080	     25.91072448	     -0.26211059	     -8.34223637	     14.64622520	     14.64622520	      4.36689879	      9.53175110	      4.62085683	      7.27249791	     -3.31146273	    -11.17104088	     21.53868381	     21.53868381	     20.48679247	    -13.21330162	      2.63379641	    -10.88612670	      7.31873228	      1.27589658	    -20.19120855	    -12.48679016	    -17.05178560	     28.40080395	     46.46990506	      0.00000000	      0.00000000	     38.17700757	    -22.86195362	     -3.38955503	     60.16991249	     47.61792238	      0.00000000	      0.00000000
     38.51871429	     -4.96687726	     -4.47310137	    -10.98947336	      0.90548708	      0.92283140	      0.42683415	     25.49128612	     -0.02200835	     -8.87669284	     13.01306984	     13.01306984	      3.66875958	     10.92795955	      5.29493470	      6.73528160	     -3.21235331	    -11.40118104	     21.35687645	     21.35687645	     20.83294857	    -13.17951539	      2.39751820	    -10.67361966	      7.27836961	      1.42500222	    -20.06650230	    -12.35288019	    -17.03554033	     28.37572079	     46.46897194	      0.00000000	      0.00000000	     39.40293849	    -23.25426424	     -3.70978429	     61.11989828	     47.66544315	      0.00000000	      0.00000000
     38.53964286	     -4.98133475	     -4.33373970	    -11.17007306	      0.90656145	      0.92149593	      0.42989462	     25.15101425	      0.14994143	     -9.40384356	     12.24390313	     12.24390313	      3.08300788	     11.96892555	      5.28764415	      6.12639689	     -3.16505029	    -11.60580779	     21.24062098	     21.24062098	     21.21481633	    -13.09540220	      2.14695489	    -10.53400685	      7.29780215	      1.62416498	    -19.82828070	    -12.26791952	    -17.02396321	     28.27148369	     46.47306677	      0.00000000	      0.00000000	     40.45377697	    -23.51443017	     -4.11121266	     62.18177678	     47.71873598	      0.00000000	      0.00000000
     38.56057143	     -5.10989557	     -4.22040488	    -11.28199312	      0.90791662	      0.92005464	      0.43311230	     25.11949532	      0.31787669	     -9.51580848	     12.29068566	     12.29068566	      2.77284219	     12.06146783	      5.15484281	      5.67585096	     -3.16423142	    -11.63625565	     21.21404761	     21.21404761	     21.56847794	    -13.15090206	      2.02151606	    -10.22225975	      7.42006243	      1.72754389	    -19.51241341	    -12.28809514	    -17.01816617	     28.31943811	     46.47311939	      0.00000000	      0.00000000	     41.40423980	    -23.84265730	     -4.33731750	     62.68136787	     47.75056912	      0.00000000	      0.00000000
     38.58150000	     -4.93577859	     -4.16194188	    -11.29949420	      0.90979383	      0.91914146	      0.43645899	     24.82024384	      0.40069959	     -9.56220706	     12.84237538	     12.84237538	      2.43882324	     11.89767696	      3.86943414	      4.85820575	     -3.19340933	    -11.72959456	     21.19343197	     21.19343197	     21.94503237	    -13.01736951	      1.88014414	    -10.25390060	      7.50463678	      1.95309941	    -19.09137944	    -12.27298030	    -17.01306669	     28.13371136	     46.48380575	      0.00000000	      0.00000000	     42.14772940	    -23.86563743	     -4.82304750	     63.75013181	     47.80728092	      0.00000000	      0.00000000
     38.60242857	     -4.91113278	     -4.06616516	    -11.27206285	      0.91212275	      0.91812734	      0.44011257	     24.39603747	      0.60193940	     -8.94736821	     12.91444702	     12.91444702	     -0.09960749	     10.40059737	     -3.90495472	      4.15879275	     -3.24231292	    -11.86455709	     21.12948374	     21.12948374	     22.31442111	    -12.71229511	      1.82884222	    -10.03615824	      7.60689477	      1.31310180	    -17.77743638	    -12.46987119	    -17.25968226	     26.83792203	     46.56668400	      0.00000000	      0.00000000	     41.42196388	    -24.30005647	     -7.10982510	     66.37183914	     47.99136199	      0.00000000	      0.00000000
     38.62335714	     -4.83055722	     -4.02029209	    -11.19621064	      0.91456168	      0.91766565	      0.44383629	     24.35293888	      0.66430410	     -8.55886801	     14.21597782	     14.21597782	      0.14607647	      9.39996774	     -4.70987157	      3.34386411	     -3.31368229	    -11.87138932	     20.95486355	     20.95486355	     22.48814261	    -12.56073217	      1.84722036	     -9.89477337	      7.75422421	      1.49347373	    -17.39083666	    -12.58122561	    -17.27073008	     26.81390414	     46.57162699	      0.00000000	      0.00000000	     41.88257022	    -24.31733810	     -7.23382748	     66.76184714	     48.00686891	      0.00000000	      0.00000000
     38.64428571	     -4.72043849	     -4.02419846	    -11.04855254	      0.91721418	      0.91757349	      0.44783160	     24.23126246	      0.80362963	     -7.98118601	     15.54305489	     15.54305489	      0.45970797	      7.99787704	     -5.57989972	      2.46554908	     -3.47115306	    -11.89203088	     20.75002991	     20.75002991	     22.59046043	    -12.27710874	      1.88870149	     -9.76188668	      7.89978114	      1.60037083	    -16.98611600	    -12.73016914	    -17.32025421	     26.81195976	     46.57894249	      0.00000000	      0.00000000	     42.08383029	    -24.28829057	     -7.48592349	     67.24274452	     48.03082184	      0.00000000	      0.00000000
     38.66521429	     -4.63845116	     -4.02804174	    -10.84265184	      0.92002229	      0.91779848	      0.45201678	     24.06888208	      0.99980121	     -7.16372304	     16.76719264	     16.76719264	      0.82605659	      6.21457733	     -6.39929256	      1.59249596	     -3.68061030	    -12.00062547	     20.50095974	     20.50095974	     22.61692888	    -11.78884079	      1.93146818	     -9.59215594	      8.04952968	      1.56963454	    -16.52531939	    -12.88555963	    -17.42466604	     26.82243998	     46.58998511	      0.00000000	      0.00000000	     41.99284299	    -24.23681080	     -7.91749907	     67.88989425	     48.06636437	      0.00000000	      0.00000000
